<?xml version="1.0" standalone="no"?>
<!DOCTYPE svg PUBLIC "-//W3C//DTD SVG 20010904//EN"
 "http://www.w3.org/TR/2001/REC-SVG-20010904/DTD/svg10.dtd">
<svg version="1.0" xmlns="http://www.w3.org/2000/svg"
 width="736.000000pt" height="736.000000pt" viewBox="0 0 736.000000 736.000000"
 preserveAspectRatio="xMidYMid meet">
<metadata>
Created by potrace 1.11, written by Peter Selinger 2001-2013
</metadata>
<g transform="translate(0.000000,736.000000) scale(0.100000,-0.100000)"
fill="#000000" stroke="none">
<path d="M3056 7248 c-22 -62 -43 -119 -49 -125 -5 -7 -7 -13 -3 -13 3 0 1
-12 -5 -27 -22 -55 -120 -338 -124 -356 -2 -9 -6 -21 -10 -26 -5 -9 -75 -208
-206 -586 -32 -93 -62 -177 -65 -185 -4 -8 -8 -19 -10 -25 -2 -11 -92 -270
-101 -295 -4 -8 -7 -18 -8 -22 -2 -5 -4 -10 -5 -13 -1 -3 -3 -8 -5 -12 -1 -5
-6 -19 -12 -33 -6 -14 -27 -74 -47 -135 -20 -60 -41 -119 -46 -130 -8 -18 -30
-85 -36 -110 -2 -5 -15 -41 -29 -80 -15 -38 -29 -77 -31 -85 -4 -17 -71 -207
-81 -230 -3 -8 -7 -22 -9 -30 -2 -9 -11 -34 -20 -55 -10 -22 -19 -47 -20 -56
-2 -9 -17 -52 -34 -95 -16 -43 -30 -84 -30 -91 0 -7 -4 -21 -9 -31 -10 -18
-39 -100 -116 -322 -25 -74 -51 -148 -58 -165 -6 -16 -13 -34 -14 -40 -2 -11
-36 -106 -83 -235 -17 -47 -32 -92 -35 -100 -5 -20 -85 -249 -98 -280 -5 -14
-11 -29 -12 -35 -3 -13 -73 -215 -82 -235 -3 -8 -7 -19 -8 -25 -2 -5 -15 -41
-29 -80 -15 -38 -26 -71 -26 -73 1 -2 -33 -97 -47 -132 -3 -8 -7 -19 -8 -25
-3 -14 -34 -107 -42 -125 -3 -8 -7 -17 -8 -20 -1 -3 -4 -12 -8 -20 -3 -8 -13
-35 -21 -60 -15 -45 -77 -223 -196 -560 -34 -96 -79 -227 -101 -290 -21 -63
-42 -122 -46 -130 -3 -8 -7 -18 -7 -22 -1 -3 -4 -10 -9 -14 -4 -4 -7 -14 -7
-22 0 -13 -40 -133 -67 -202 -4 -8 -7 -17 -8 -20 -1 -3 -5 -12 -8 -20 -4 -8
-13 -35 -21 -60 -8 -25 -39 -117 -70 -205 -32 -88 -66 -187 -77 -220 -11 -33
-23 -67 -26 -75 -3 -8 -7 -17 -8 -20 -1 -3 -7 -18 -13 -33 -7 -16 -12 -33 -12
-39 0 -5 -6 -24 -14 -41 -11 -26 -45 -123 -51 -147 -1 -3 -6 -16 -12 -30 -14
-35 -93 -267 -93 -274 0 -3 280 -6 623 -6 l622 0 35 103 c19 56 40 113 47 127
7 14 13 29 13 33 0 7 151 446 167 487 3 8 7 20 9 25 1 6 21 62 44 125 23 63
43 122 45 130 2 8 9 29 15 45 13 32 100 283 104 300 2 6 6 17 9 25 8 17 97
270 101 285 2 6 6 17 9 25 4 8 27 76 52 150 26 74 50 144 55 155 5 11 17 47
28 80 11 33 45 132 77 220 31 88 58 167 60 175 3 8 13 40 24 70 40 111 113
319 166 470 29 85 79 227 110 315 31 88 80 230 110 315 78 228 95 273 102 290
3 8 7 20 8 25 2 10 25 75 150 430 111 317 155 443 155 450 0 4 6 21 14 38 8
18 33 86 56 152 66 191 116 336 134 385 15 39 21 59 26 80 2 12 20 -34 60
-150 23 -69 46 -134 50 -145 10 -22 73 -205 121 -350 16 -49 34 -98 39 -107 6
-10 10 -25 10 -33 0 -8 4 -23 10 -33 5 -9 21 -53 36 -97 15 -44 44 -128 65
-188 21 -59 38 -110 39 -112 0 -3 3 -10 5 -17 10 -24 126 -363 130 -378 3 -8
21 -60 40 -115 20 -55 40 -113 45 -130 5 -16 32 -95 60 -175 28 -80 71 -201
94 -270 24 -69 55 -158 69 -197 14 -40 24 -73 21 -73 -3 0 2 -12 10 -27 8 -16
30 -71 47 -123 18 -52 41 -120 51 -150 11 -30 21 -59 22 -65 2 -5 6 -17 9 -25
3 -8 13 -35 21 -60 24 -72 96 -284 103 -300 3 -8 7 -19 9 -25 1 -5 30 -89 64
-185 34 -96 64 -184 67 -195 3 -11 11 -34 19 -52 8 -17 17 -45 20 -62 4 -17
11 -34 15 -37 5 -3 9 -15 9 -28 0 -12 3 -26 8 -30 4 -4 7 -11 8 -14 0 -4 3
-14 7 -22 3 -8 15 -44 27 -80 12 -36 58 -168 102 -295 44 -126 88 -255 98
-285 10 -30 51 -147 90 -260 39 -113 78 -225 86 -250 8 -25 19 -54 24 -65 4
-11 30 -84 56 -162 l48 -143 617 0 c568 0 654 3 620 25 -5 3 -21 40 -35 83
-13 42 -50 149 -81 237 -47 133 -68 193 -80 235 -1 3 -5 12 -8 20 -7 16 -141
400 -162 465 -8 22 -28 81 -45 130 -52 147 -171 489 -174 500 -2 6 -6 17 -9
25 -7 17 -27 72 -61 175 -51 147 -117 341 -123 355 -3 8 -7 20 -9 25 -1 6 -28
82 -59 170 -31 88 -68 194 -82 235 -13 41 -28 84 -33 95 -5 11 -18 49 -30 85
-12 36 -25 74 -30 85 -5 11 -28 76 -51 145 -23 69 -54 161 -70 205 -91 264
-150 432 -156 445 -3 8 -8 22 -10 30 -6 23 -9 33 -20 60 -6 14 -31 86 -56 160
-25 74 -67 194 -92 265 -25 72 -48 137 -50 145 -2 8 -30 87 -61 175 -30 88
-74 212 -95 275 -22 63 -42 122 -46 130 -3 8 -7 17 -7 20 -1 3 -5 11 -9 18 -5
6 -6 12 -2 12 3 0 -2 17 -11 38 -9 20 -22 55 -29 77 -7 22 -36 105 -64 185
-96 274 -162 465 -182 525 -11 33 -24 69 -29 80 -4 11 -11 29 -14 40 -5 22
-32 99 -45 130 -11 28 -32 87 -36 105 -2 8 -4 15 -5 15 -1 0 -3 7 -5 15 -2 8
-25 74 -50 145 -25 72 -62 177 -81 235 -20 58 -40 114 -44 125 -5 11 -27 73
-50 138 -22 64 -58 168 -79 230 -22 61 -50 142 -63 180 l-23 67 -595 0 -595 0
-39 -112z"/>
<path d="M3195 2340 c-104 -3 -185 -7 -180 -8 7 -2 7 -5 0 -10 -6 -4 -25 -50
-42 -102 -18 -52 -66 -194 -108 -315 -43 -121 -79 -229 -82 -240 -3 -11 -10
-26 -16 -32 -5 -7 -7 -13 -4 -13 3 0 -1 -16 -9 -35 -7 -19 -14 -39 -14 -45 0
-7 304 -10 950 -10 523 0 950 2 950 5 0 8 -31 100 -41 120 -5 11 -13 34 -18
50 -5 17 -20 60 -34 98 -14 37 -23 67 -20 67 3 0 1 6 -4 13 -5 6 -24 55 -42
107 -18 52 -39 109 -46 125 -6 17 -27 74 -46 128 l-33 97 -206 1 c-113 1 -209
0 -215 -1 -5 -1 -14 -2 -20 -2 -53 3 -469 2 -472 -2 -2 -2 -17 -1 -31 2 -15 4
-112 5 -217 2z"/>
</g>
</svg>
