<svg width="45" height="50" viewBox="0 0 45 50" fill="none" xmlns="http://www.w3.org/2000/svg">
<path fill-rule="evenodd" clip-rule="evenodd" d="M5 25V16.552C9.1386 18.7627 15.4637 20 22.5 20C29.5363 20 35.8614 18.7627 40 16.552V25C40 27.0926 32.2468 30 22.5 30C12.7532 30 5 27.0926 5 25ZM0 25V10C0 3.80828 10.1554 0 22.5 0C34.8446 0 45 3.80828 45 10V25V40C45 46.1917 34.8446 50 22.5 50C10.1554 50 0 46.1917 0 40V25ZM40 31.552V40C40 42.0926 32.2468 45 22.5 45C12.7532 45 5 42.0926 5 40V31.552C9.1386 33.7627 15.4637 35 22.5 35C29.5363 35 35.8614 33.7627 40 31.552ZM22.5 15C32.2468 15 40 12.0926 40 10C40 7.90745 32.2468 5 22.5 5C12.7532 5 5 7.90745 5 10C5 12.0926 12.7532 15 22.5 15Z" fill="#2BCED6"/>
</svg>
