<svg width="1808" height="1148" viewBox="0 0 1808 1148" fill="none" xmlns="http://www.w3.org/2000/svg">
<path style="mix-blend-mode:overlay" opacity="0.43" d="M1471.66 1127.17H354.447L772.042 220.963H1054.07L1471.66 1127.17Z" fill="url(#paint0_linear)"/>
<path d="M330.072 873.756L344.232 806.09L418.664 789.171" stroke="#2BCED6" stroke-width="3" stroke-linecap="round" stroke-linejoin="round"/>
<path d="M561.745 645.483H1172.45C1180.65 645.483 1188.52 648.752 1194.33 654.57C1200.13 660.388 1203.39 668.279 1203.39 676.506V1080.56H530.812V676.504C530.812 668.278 534.072 660.389 539.872 654.572C545.673 648.754 553.541 645.485 561.745 645.483V645.483Z" stroke="#2BCED6" stroke-width="3" stroke-linecap="round" stroke-linejoin="round"/>
<path d="M1152.76 1030.32V696.757H581.437V1030.32H1152.76Z" stroke="#2BCED6" stroke-width="3" stroke-linecap="round" stroke-linejoin="round"/>
<path d="M456.597 1080.83H1277.61C1279.53 1080.83 1281.37 1081.59 1282.72 1082.95C1284.08 1084.31 1284.84 1086.15 1284.84 1088.08V1096.76C1284.84 1106.38 1281.03 1115.6 1274.25 1122.4C1267.47 1129.2 1258.27 1133.02 1248.68 1133.02H485.525C475.935 1133.02 466.738 1129.2 459.956 1122.4C453.175 1115.6 449.365 1106.38 449.365 1096.76V1088.08C449.365 1086.15 450.127 1084.31 451.483 1082.95C452.84 1081.59 454.679 1080.83 456.597 1080.83Z" stroke="#2BCED6" stroke-width="3" stroke-linecap="round" stroke-linejoin="round"/>
<path d="M791.163 1080.56H943.035C943.035 1084.41 941.511 1088.1 938.799 1090.82C936.086 1093.54 932.407 1095.06 928.571 1095.06H805.627C801.791 1095.06 798.112 1093.54 795.399 1090.82C792.687 1088.1 791.163 1084.41 791.163 1080.56Z" stroke="#2BCED6" stroke-width="3" stroke-linecap="round" stroke-linejoin="round"/>
<path d="M865.679 684.942C873.668 684.942 880.143 678.449 880.143 670.439C880.143 662.43 873.668 655.937 865.679 655.937C857.691 655.937 851.215 662.43 851.215 670.439C851.215 678.449 857.691 684.942 865.679 684.942Z" stroke="#2BCED6" stroke-width="3" stroke-linecap="round" stroke-linejoin="round"/>
<path d="M277.448 1133.01H366.221C369.301 1133.01 372.274 1131.89 374.586 1129.85C376.897 1127.81 378.386 1124.99 378.776 1121.93L402.488 935.388H241.189L264.902 1121.93C265.292 1124.99 266.78 1127.8 269.089 1129.84C271.399 1131.88 274.37 1133.01 277.448 1133.01V1133.01Z" stroke="#2BCED6" stroke-width="3" stroke-linecap="round" stroke-linejoin="round"/>
<path d="M396.404 1079.31L407.872 989.094H235.799L247.267 1079.31H396.404Z" stroke="#2BCED6" stroke-width="3" stroke-linecap="round" stroke-linejoin="round"/>
<path d="M230.823 935.391H412.849C423.833 935.391 432.737 926.463 432.737 915.45C432.737 904.437 423.833 895.509 412.849 895.509H230.823C219.839 895.509 210.935 904.437 210.935 915.45C210.935 926.463 219.839 935.391 230.823 935.391Z" stroke="#2BCED6" stroke-width="3" stroke-linecap="round" stroke-linejoin="round"/>
<path d="M249.515 895.51H394.155L391.293 873.757H252.379L249.515 895.51Z" stroke="#2BCED6" stroke-width="3" stroke-linecap="round" stroke-linejoin="round"/>
<path d="M1303.81 1133.19C1303.89 1119.31 1309.45 1106.02 1319.27 1096.23C1329.09 1086.44 1342.37 1080.95 1356.22 1080.95C1370.07 1080.95 1383.36 1086.44 1393.18 1096.23C1403 1106.02 1408.55 1119.31 1408.64 1133.19H1303.81Z" stroke="#2BCED6" stroke-width="3" stroke-linecap="round" stroke-linejoin="round"/>
<path d="M938.65 748.686H663.863C655.867 748.686 649.385 755.185 649.385 763.203V977.087C649.385 985.105 655.867 991.604 663.863 991.604H938.65C946.646 991.604 953.129 985.105 953.129 977.087V763.203C953.129 755.185 946.646 748.686 938.65 748.686Z" stroke="#2BCED6" stroke-width="3" stroke-linecap="round" stroke-linejoin="round"/>
<path d="M663.862 748.686H938.65C942.49 748.686 946.173 750.215 948.888 752.938C951.603 755.66 953.129 759.353 953.129 763.203V784.942H649.385V763.203C649.385 759.353 650.91 755.661 653.625 752.938C656.34 750.216 660.022 748.686 663.862 748.686Z" stroke="#2BCED6" stroke-width="3" stroke-linecap="round" stroke-linejoin="round"/>
<path opacity="0.35" d="M675.301 772.478C678.421 772.478 680.951 769.941 680.951 766.812C680.951 763.684 678.421 761.147 675.301 761.147C672.18 761.147 669.651 763.684 669.651 766.812C669.651 769.941 672.18 772.478 675.301 772.478Z" fill="#2BCED6"/>
<path opacity="0.35" d="M693.078 772.478C696.198 772.478 698.728 769.941 698.728 766.812C698.728 763.684 696.198 761.147 693.078 761.147C689.957 761.147 687.428 763.684 687.428 766.812C687.428 769.941 689.957 772.478 693.078 772.478Z" fill="#2BCED6"/>
<path opacity="0.35" d="M709.955 772.478C713.075 772.478 715.604 769.941 715.604 766.812C715.604 763.684 713.075 761.147 709.955 761.147C706.834 761.147 704.305 763.684 704.305 766.812C704.305 769.941 706.834 772.478 709.955 772.478Z" fill="#2BCED6"/>
<path d="M663.547 797.632H683.435" stroke="#2BCED6" stroke-width="3" stroke-miterlimit="10"/>
<path d="M690.669 797.632H744.91" stroke="#2BCED6" stroke-width="3" stroke-miterlimit="10"/>
<path d="M663.547 812.134H744.908" stroke="#2BCED6" stroke-width="3" stroke-miterlimit="10"/>
<path d="M679.821 826.636H719.597" stroke="#2BCED6" stroke-width="3" stroke-miterlimit="10"/>
<path d="M726.828 826.636H770.22" stroke="#2BCED6" stroke-width="3" stroke-miterlimit="10"/>
<path d="M701.517 841.138H784.685" stroke="#2BCED6" stroke-width="3" stroke-miterlimit="10"/>
<path d="M701.517 855.641H762.989" stroke="#2BCED6" stroke-width="3" stroke-miterlimit="10"/>
<path d="M679.821 870.142H770.221" stroke="#2BCED6" stroke-width="3" stroke-miterlimit="10"/>
<path d="M663.547 882.832H712.364" stroke="#2BCED6" stroke-width="3" stroke-miterlimit="10"/>
<path d="M269.253 1040.37L272.869 1036.84C286.591 1048 303.718 1054.08 321.382 1054.08C339.045 1054.08 356.172 1048 369.894 1036.84L374.414 1041.27" stroke="#2BCED6" stroke-width="3" stroke-linecap="round" stroke-linejoin="round"/>
<path d="M310.298 1022.09C310.298 1020.03 309.482 1018.06 308.031 1016.61C306.579 1015.15 304.61 1014.33 302.557 1014.33V1014.33C300.505 1014.33 298.536 1015.15 297.084 1016.61C295.633 1018.06 294.817 1020.03 294.817 1022.09V1029.2" stroke="#2BCED6" stroke-width="3" stroke-linecap="round" stroke-linejoin="round"/>
<path d="M333.374 1022.09C333.374 1020.03 334.189 1018.06 335.641 1016.61C337.093 1015.15 339.061 1014.33 341.114 1014.33V1014.33C343.167 1014.33 345.136 1015.15 346.587 1016.61C348.039 1018.06 348.854 1020.03 348.854 1022.09V1029.2" stroke="#2BCED6" stroke-width="3" stroke-linecap="round" stroke-linejoin="round"/>
<path d="M1592.2 897.525H1451.54C1442.45 897.525 1435.08 904.911 1435.08 914.021V1116.69C1435.08 1125.81 1442.45 1133.19 1451.54 1133.19H1592.2C1601.29 1133.19 1608.65 1125.81 1608.65 1116.69V914.021C1608.65 904.911 1601.29 897.525 1592.2 897.525Z" stroke="#2BCED6" stroke-width="3" stroke-linecap="round" stroke-linejoin="round"/>
<path d="M1550.8 883.849H1536.33V878.411C1536.33 874.565 1534.81 870.876 1532.1 868.156C1529.38 865.436 1525.7 863.908 1521.87 863.908C1518.03 863.908 1514.35 865.436 1511.64 868.156C1508.93 870.876 1507.4 874.565 1507.4 878.411V883.849H1492.94C1489.1 883.849 1485.42 885.377 1482.71 888.097C1480 890.817 1478.48 894.506 1478.48 898.352C1478.48 902.198 1480 905.887 1482.71 908.607C1485.42 911.326 1489.1 912.854 1492.94 912.854H1550.8C1554.63 912.854 1558.31 911.326 1561.02 908.607C1563.74 905.887 1565.26 902.198 1565.26 898.352C1565.26 894.506 1563.74 890.817 1561.02 888.097C1558.31 885.377 1554.63 883.849 1550.8 883.849Z" stroke="#2BCED6" stroke-width="3" stroke-linecap="round" stroke-linejoin="round"/>
<path d="M1521.87 965.428C1530.19 965.428 1536.93 958.665 1536.93 950.322C1536.93 941.979 1530.19 935.216 1521.87 935.216C1513.55 935.216 1506.8 941.979 1506.8 950.322C1506.8 958.665 1513.55 965.428 1521.87 965.428Z" stroke="#2BCED6" stroke-width="3" stroke-linecap="round" stroke-linejoin="round"/>
<path d="M1464.41 996.849H1500.57" stroke="#2BCED6" stroke-width="3" stroke-linecap="round" stroke-linejoin="round"/>
<path d="M1464.41 1046.1H1500.57" stroke="#2BCED6" stroke-width="3" stroke-linecap="round" stroke-linejoin="round"/>
<path d="M1464.41 1095.35H1500.57" stroke="#2BCED6" stroke-width="3" stroke-linecap="round" stroke-linejoin="round"/>
<path d="M1524.47 994.913L1533.89 1007.48L1562.11 986.22" stroke="#2BCED6" stroke-width="3" stroke-linecap="round" stroke-linejoin="round"/>
<path d="M1524.47 1044.16L1533.89 1056.73L1562.11 1035.47" stroke="#2BC9D6" stroke-width="3" stroke-linecap="round" stroke-linejoin="round"/>
<path d="M1626.56 998.402L1608.65 1000.9L1624.6 1115.81L1642.5 1113.32L1626.56 998.402Z" stroke="#2BCED6" stroke-width="3" stroke-linecap="round" stroke-linejoin="round"/>
<path d="M1642.51 1113.31L1624.6 1115.81L1636.05 1132.52L1642.51 1113.31Z" stroke="#2BCED6" stroke-width="3" stroke-linecap="round" stroke-linejoin="round"/>
<path d="M1619.94 980.149L1609.2 981.65L1611.7 999.597L1622.44 998.096L1619.94 980.149Z" stroke="#2BCED6" stroke-width="3" stroke-linecap="round" stroke-linejoin="round"/>
<path d="M1642.75 1043.75C1640.72 1040.4 1639.29 1036.73 1638.51 1032.9C1636.51 1023.05 1641.44 1017.42 1638.77 1011.81C1637.71 1009.58 1637.2 1006.53 1629.21 1005.37" stroke="#2BCED6" stroke-width="3" stroke-linecap="round" stroke-linejoin="round"/>
<path d="M1664.72 1133.19H1711.27" stroke="#2BCED6" stroke-width="3" stroke-linecap="round" stroke-linejoin="round"/>
<path d="M423.674 1133.19H1644.38" stroke="#2BCED6" stroke-width="3" stroke-linecap="round" stroke-linejoin="round"/>
<path d="M207.466 1133.19H402.488" stroke="#2BCED6" stroke-width="3" stroke-linecap="round" stroke-linejoin="round"/>
<path d="M145.243 1133.19H187.129" stroke="#2BCED6" stroke-width="3" stroke-linecap="round" stroke-linejoin="round"/>
<path d="M788.61 234.24C786.387 234.234 784.191 233.755 782.167 232.835C780.142 231.915 778.335 230.574 776.866 228.902C775.396 227.23 774.297 225.265 773.641 223.135C772.986 221.006 772.788 218.761 773.061 216.549C781.553 144.798 840.991 89.2146 913.053 89.2146C985.114 89.2146 1044.55 144.798 1053.04 216.549C1053.31 218.761 1053.11 221.006 1052.46 223.135C1051.8 225.265 1050.7 227.231 1049.23 228.903C1047.76 230.575 1045.96 231.915 1043.93 232.836C1041.91 233.756 1039.71 234.234 1037.49 234.24H788.61Z" stroke="#2BCED6" stroke-width="3" stroke-linecap="round" stroke-linejoin="round"/>
<path d="M913.053 0V77.1414" stroke="#2BCED6" stroke-width="3" stroke-linejoin="round"/>
<defs>
<linearGradient id="paint0_linear" x1="913.054" y1="208.362" x2="913.054" y2="1159.15" gradientUnits="userSpaceOnUse">
<stop stop-color="white"/>
<stop offset="0.093" stop-color="white" stop-opacity="0.864"/>
<stop offset="0.284" stop-color="white" stop-opacity="0.605"/>
<stop offset="0.466" stop-color="white" stop-opacity="0.389"/>
<stop offset="0.633" stop-color="white" stop-opacity="0.221"/>
<stop offset="0.784" stop-color="white" stop-opacity="0.1"/>
<stop offset="0.911" stop-color="white" stop-opacity="0.026"/>
<stop offset="1" stop-color="white" stop-opacity="0"/>
</linearGradient>
</defs>
</svg>
