<svg width="13" height="11" viewBox="0 0 13 11" fill="none" xmlns="http://www.w3.org/2000/svg">
<path fill-rule="evenodd" clip-rule="evenodd" d="M8.65572 5.11765C8.65572 6.37382 7.66345 7.39216 6.43942 7.39216C5.21539 7.39216 4.22312 6.37382 4.22312 5.11765C4.22312 3.86147 5.21539 2.84314 6.43942 2.84314C7.66345 2.84314 8.65572 3.86147 8.65572 5.11765ZM7.54757 5.11765C7.54757 5.74574 7.05143 6.2549 6.43942 6.2549C5.82741 6.2549 5.33127 5.74574 5.33127 5.11765C5.33127 4.48956 5.82741 3.98039 6.43942 3.98039C7.05143 3.98039 7.54757 4.48956 7.54757 5.11765Z" fill="#EEEEEE"/>
<path fill-rule="evenodd" clip-rule="evenodd" d="M6.43942 0C9.53753 0 12.1407 2.17461 12.8788 5.11765C12.1407 8.06068 9.53753 10.2353 6.43942 10.2353C3.34131 10.2353 0.738098 8.06068 0 5.11765C0.738098 2.17461 3.34131 0 6.43942 0ZM6.43942 9.09804C3.95963 9.09804 1.85796 7.42521 1.15202 5.11765C1.85796 2.81008 3.95963 1.13725 6.43942 1.13725C8.91922 1.13725 11.0209 2.81008 11.7268 5.11765C11.0209 7.42521 8.91922 9.09804 6.43942 9.09804Z" fill="#EEEEEE"/>
</svg>
