<svg width="50" height="50" viewBox="0 0 50 50" fill="none" xmlns="http://www.w3.org/2000/svg">
<path fill-rule="evenodd" clip-rule="evenodd" d="M25 50C11.1929 50 0 38.8071 0 25C0 11.1929 11.1929 0 25 0C38.8071 0 50 11.1929 50 25C50 38.8071 38.8071 50 25 50ZM25 45.4545C36.2967 45.4545 45.4545 36.2967 45.4545 25C45.4545 13.7033 36.2967 4.54544 25 4.54544C13.7033 4.54544 4.54544 13.7033 4.54544 25C4.54544 36.2967 13.7033 45.4545 25 45.4545ZM16.5747 35.698L19.7889 32.4839L12.305 25L19.7889 17.5162L16.5747 14.3021L5.87677 25L16.5747 35.698ZM30.2111 17.5162L33.4252 14.3021L44.1232 25L33.4252 35.698L30.2111 32.4839L37.695 25L30.2111 17.5162ZM20.4855 38.2627L24.9691 39.0099L29.5145 11.7372L25.0309 10.9899L20.4855 38.2627Z" fill="#2BCED6"/>
</svg>
