<svg width="28" height="25" viewBox="0 0 28 25" fill="none" xmlns="http://www.w3.org/2000/svg">
<path d="M0 1.78571C0 0.799492 0.779029 0 1.74001 0H26.1002C27.0611 0 27.8402 0.799492 27.8402 1.78571C27.8402 2.77194 27.0611 3.57143 26.1002 3.57143H1.74001C0.779029 3.57143 0 2.77194 0 1.78571Z" fill="#EEEEEE"/>
<path d="M0 23.2143C0 22.2281 0.779029 21.4286 1.74001 21.4286H26.1002C27.0611 21.4286 27.8402 22.2281 27.8402 23.2143C27.8402 24.2005 27.0611 25 26.1002 25H1.74001C0.779029 25 0 24.2005 0 23.2143Z" fill="#EEEEEE"/>
<path d="M12.1801 10.7143C11.2191 10.7143 10.4401 11.5138 10.4401 12.5C10.4401 13.4862 11.2191 14.2857 12.1801 14.2857H26.1002C27.0611 14.2857 27.8402 13.4862 27.8402 12.5C27.8402 11.5138 27.0611 10.7143 26.1002 10.7143H12.1801Z" fill="#EEEEEE"/>
</svg>
