<svg width="69" height="50" viewBox="0 0 69 50" fill="none" xmlns="http://www.w3.org/2000/svg">
<path fill-rule="evenodd" clip-rule="evenodd" d="M6.25 6.25C6.25 2.79822 9.04822 0 12.5 0H56.25C59.7018 0 62.5 2.79822 62.5 6.25V31.25C62.5 34.7018 59.7018 37.5 56.25 37.5H12.5C9.04822 37.5 6.25 34.7018 6.25 31.25V6.25ZM12.5 6.25H56.25V31.25H12.5V6.25Z" fill="#2BCED6"/>
<path d="M3.125 43.75C1.39911 43.75 0 45.1491 0 46.875C0 48.6009 1.39911 50 3.125 50H65.625C67.3509 50 68.75 48.6009 68.75 46.875C68.75 45.1491 67.3509 43.75 65.625 43.75H3.125Z" fill="#2BCED6"/>
</svg>
